<svg width="225" height="47" xmlns="http://www.w3.org/2000/svg" fill="none">
 <defs>
  <linearGradient y2="0.66828" x2="0.46669" y1="0.10584" x1="0.11987" id="paint0_linear">
   <stop stop-color="white"/>
   <stop stop-opacity="0" stop-color="white" offset="1"/>
  </linearGradient>
  <linearGradient y2="0.48689" x2="0.65693" y1="0.10397" x1="-0.28198" id="paint1_linear">
   <stop stop-color="white"/>
   <stop stop-opacity="0" stop-color="white" offset="1"/>
  </linearGradient>
 </defs>
 <g>
  <title>Layer 1</title>
  <path id="svg_1" fill="#6B2AEE" d="m66.0084,18.7755c-4.8481,0 -8.3287,3.1906 -8.3287,8.3446c0,5.154 3.4806,8.3446 8.3287,8.3446c4.1022,0 6.9613,-2.4543 7.7072,-5.6449l-5.3453,0c-0.3729,0.859 -1.2431,1.5953 -2.6105,1.5953c-1.616,0 -2.9834,-0.9817 -3.1077,-3.0678l11.3121,0c0,-0.4909 0.1243,-0.9818 0.1243,-1.4726c0.1243,-5.0314 -3.232,-8.0992 -8.0801,-8.0992zm-3.232,6.7493c0.2486,-1.8407 1.4917,-2.8225 3.232,-2.8225c1.616,0 3.1078,0.9818 3.1078,2.8225l-6.3398,0z"/>
  <path id="svg_2" fill="#6B2AEE" d="m89.3788,24.9113l-11.4364,0l0,4.0496l11.4364,0l0,-4.0496z"/>
  <path id="svg_3" fill="#6B2AEE" d="m105.166,21.2298c-0.994,-1.4726 -2.859,-2.4543 -5.097,-2.4543c-3.9776,0 -7.2096,3.1906 -7.2096,8.2219c0,5.1541 3.232,8.3447 7.2096,8.3447c2.362,0 4.103,-1.1045 5.097,-2.5771l0,2.3316l4.972,0l0,-21.3525l-4.972,0l0,7.4857zm-3.605,9.8172c-1.8646,0 -3.6049,-1.4726 -3.6049,-4.0496c0,-2.577 1.7403,-3.9269 3.6049,-3.9269c1.865,0 3.605,1.4726 3.605,4.0496c0,2.577 -1.74,3.9269 -3.605,3.9269z"/>
  <path id="svg_4" fill="#6B2AEE" d="m118.716,19.0209l-4.973,0l0,16.1984l4.973,0l0,-16.1984z"/>
  <path id="svg_5" fill="#6B2AEE" d="m116.23,12.0261c-1.741,0 -2.984,1.2272 -2.984,2.6998c0,1.4725 1.243,2.6997 2.984,2.6997c1.74,0 2.983,-1.2272 2.983,-2.6997c0,-1.5953 -1.119,-2.6998 -2.983,-2.6998z"/>
  <path id="svg_6" fill="#6B2AEE" d="m133.633,21.2298c-0.87,-1.4726 -2.611,-2.577 -5.097,-2.577c-3.978,0 -7.21,3.1906 -7.21,8.2219c0,5.1541 3.232,8.3447 7.21,8.3447c2.486,0 4.102,-1.1045 5.097,-2.5771l0,2.3316l4.972,0l0,-15.953l-4.972,0l0,2.2089zm-3.481,9.8172c-1.865,0 -3.605,-1.4726 -3.605,-4.0496c0,-2.577 1.74,-3.9269 3.605,-3.9269c1.865,0 3.605,1.4726 3.605,4.0496c-0.124,2.5771 -1.74,3.9269 -3.605,3.9269z"/>
  <path id="svg_7" fill="#6B2AEE" d="m147.306,21.7206l0,-2.6997l-4.972,0l0,16.1984l4.972,0l0,-7.4856c0,-2.8225 1.368,-3.5588 3.73,-3.5588l1.367,0l0,-5.2767c-2.113,-0.1228 -3.978,1.1044 -5.097,2.8224z"/>
  <path id="svg_8" fill="#6B2AEE" d="m159.862,19.0209l-4.972,0l0,16.1984l4.972,0l0,-16.1984z"/>
  <path id="svg_9" fill="#6B2AEE" d="m157.376,12.0261c-1.74,0 -2.983,1.2272 -2.983,2.6998c0,1.4725 1.243,2.6997 2.983,2.6997c1.74,0 2.983,-1.2272 2.983,-2.6997c0,-1.5953 -1.243,-2.6998 -2.983,-2.6998z"/>
  <path id="svg_10" fill="#6B2AEE" d="m167.818,23.6841c0,-0.7363 0.621,-1.2272 1.864,-1.2272c1.368,0 2.238,0.7363 2.362,1.8407l4.6,0c-0.373,-3.1906 -2.611,-5.5221 -6.837,-5.5221c-4.227,0 -6.713,2.2088 -6.713,5.0313c0,5.8903 8.95,4.0496 8.95,6.6266c0,0.7363 -0.621,1.3499 -1.989,1.3499c-1.367,0 -2.362,-0.7363 -2.486,-1.8407l-4.972,0c0.248,3.0678 3.107,5.5221 7.583,5.5221c4.102,0 6.588,-2.0861 6.588,-4.9086c0,-6.1357 -8.95,-4.295 -8.95,-6.872z"/>
  <path id="svg_11" fill="#6B2AEE" d="m185.718,29.5744l0,-6.5039l3.232,0l0,-4.0496l-3.232,0l0,-3.9269l-4.972,0l0,3.9269l-1.989,0l0,4.0496l1.989,0l0,6.3812c0,4.1723 2.362,5.6449 5.718,5.6449l2.611,0l0,-4.1723l-1.741,0c-1.243,0 -1.616,-0.3682 -1.616,-1.3499z"/>
  <path id="svg_12" fill="#6B2AEE" d="m202.997,21.2298c-0.87,-1.4726 -2.61,-2.577 -5.097,-2.577c-3.978,0 -7.21,3.1906 -7.21,8.2219c0,5.1541 3.232,8.3447 7.21,8.3447c2.487,0 4.103,-1.1045 5.097,-2.5771l0,2.3316l4.972,0l0,-15.953l-4.972,0l0,2.2089zm-3.481,9.8172c-1.864,0 -3.605,-1.4726 -3.605,-4.0496c0,-2.577 1.741,-3.9269 3.605,-3.9269c1.865,0 3.605,1.4726 3.605,4.0496c-0.124,2.5771 -1.74,3.9269 -3.605,3.9269z"/>
  <path id="svg_13" fill="#6B2AEE" d="m216.05,23.6841c0,-0.7363 0.622,-1.2272 1.865,-1.2272c1.367,0 2.237,0.7363 2.362,1.8407l4.599,0c-0.373,-3.1906 -2.61,-5.5221 -6.837,-5.5221c-4.226,0 -6.713,2.2088 -6.713,5.0313c0,5.8903 8.951,4.0496 8.951,6.6266c0,0.7363 -0.622,1.3499 -1.989,1.3499c-1.368,0 -2.362,-0.7363 -2.487,-1.8407l-4.972,0c0.249,3.0678 3.108,5.5221 7.583,5.5221c4.102,0 6.588,-2.0861 6.588,-4.9086c-0.124,-6.1357 -8.95,-4.295 -8.95,-6.872z"/>
  <path id="svg_14" fill="#02E7D9" d="m7.9558,14.7258l-1.98895,-0.6135l-1.11878,-0.2455l-0.37293,-1.1044l-0.49724,-1.9634l-0.49724,1.9634l-0.37293,1.1044l-1.11878,0.2455l-1.98895,0.6135l1.98895,0.4909l1.11878,0.3682l0.37293,1.1044l0.49724,1.9634l0.49724,-1.9634l0.37293,-1.1044l1.11878,-0.3682l1.98895,-0.4909z"/>
  <path id="svg_15" fill="#02E7D9" d="m24.8617,1.96345l-0.9945,-0.24543l-0.6215,-0.12272l-0.1243,-0.61358l-0.2487,-0.98172l-0.2486,0.98172l-0.2486,0.61358l-0.4972,0.12272l-0.9945,0.24543l0.9945,0.24543l0.4972,0.12271l0.2486,0.61358l0.2486,0.98172l0.2487,-0.98172l0.1243,-0.61358l0.6215,-0.12271l0.9945,-0.24543z"/>
  <path id="svg_16" fill="#6B2AEE" d="m5.84238,18.53c-2.98342,7.4857 -1.3674,16.3212 4.72372,22.3342c8.2045,8.0992 21.6299,8.0992 29.8343,0c8.2044,-8.0992 8.2044,-21.3524 0,-29.4517c-5.9669,-6.13574 -14.9171,-7.73104 -22.5,-4.78587c1.7403,-0.49086 3.605,-0.85901 5.3453,-0.85901c4.7238,0 9.3232,1.71802 12.9282,5.27678c3.6049,3.5587 5.3453,8.0992 5.3453,12.7624c0,4.6632 -1.7404,9.2036 -5.3453,12.7624c-3.605,3.5587 -8.2044,5.2768 -12.9282,5.2768c-4.7238,0 -9.3232,-1.7181 -12.9282,-5.2768c-3.48064,-3.436 -5.22097,-8.0992 -5.22097,-12.7624c0,-1.718 0.24862,-3.5588 0.74585,-5.2768z" clip-rule="evenodd" fill-rule="evenodd"/>
  <path id="svg_17" fill="#02E7D9" d="m7.45898,30.5561c2.61052,5.8904 8.70162,10.0627 15.66302,10.0627c9.4475,0 17.1547,-7.6084 17.1547,-16.9347c0,-9.3264 -7.7072,-16.93477 -17.1547,-16.93477c-6.9614,0 -13.0525,4.17237 -15.66302,10.18537c0.74586,-1.3499 1.61603,-2.4543 2.61052,-3.5587c2.7348,-2.6998 6.3398,-4.29508 10.442,-4.29508c4.1022,0 7.8315,1.59528 10.442,4.29508c2.7348,2.6997 4.3508,6.2584 4.3508,10.3081c0,4.0496 -1.616,7.731 -4.3508,10.308c-2.7348,2.6998 -6.3398,4.2951 -10.442,4.2951c-4.1022,0 -7.8315,-1.5953 -10.442,-4.2951c-0.99449,-0.9817 -1.86466,-2.2088 -2.61052,-3.436z" clip-rule="evenodd" fill-rule="evenodd"/>
  <path id="svg_18" fill="url(#paint0_linear)" d="m22.873,39.3916c3.3564,-0.4908 6.5884,-2.0861 9.0746,-4.4177c2.9835,-2.9452 4.7238,-6.9948 4.7238,-11.1671c0,-4.1723 -1.616,-8.222 -4.7238,-11.1671c-2.4862,-2.4543 -5.5939,-4.04963 -9.0746,-4.41778c0.1244,0 0.1244,0 0.2487,0c8.8259,0 15.9116,6.99478 15.9116,15.70758c0,4.1723 -1.6161,8.0992 -4.5995,11.0444c-2.9834,2.9452 -6.9613,4.5405 -11.1878,4.5405c-0.2486,-0.1228 -0.2486,-0.1228 -0.373,-0.1228z" clip-rule="evenodd" fill-rule="evenodd"/>
  <path id="svg_19" fill="#02E7D9" d="m42.1411,8.83551c1.991,0 3.605,-1.5933 3.605,-3.55875c0,-1.96544 -1.614,-3.55874 -3.605,-3.55874c-1.991,0 -3.605,1.5933 -3.605,3.55874c0,1.96545 1.614,3.55875 3.605,3.55875z"/>
  <path id="svg_20" stroke-miterlimit="10" stroke-width="0.7" stroke="white" d="m42.1406,2.69977c1.4917,0 2.6105,1.10444 2.6105,2.57702"/>
  <path id="svg_21" fill="#02E7D9" d="m6.33973,47c3.02078,0 5.46957,-2.4174 5.46957,-5.3995c0,-2.982 -2.44879,-5.3995 -5.46957,-5.3995c-3.02078,0 -5.46961,2.4175 -5.46961,5.3995c0,2.9821 2.44883,5.3995 5.46961,5.3995z"/>
  <path id="svg_22" stroke-miterlimit="10" stroke="white" d="m5.59376,45.282c-2.11326,-0.3682 -3.48067,-2.4543 -3.10774,-4.5405"/>
  <path id="svg_23" fill="white" d="m41.022,36.2011l-2.3619,-0.7363l-1.3674,-0.3682l-0.3729,-1.3498l-0.7458,-2.3316l-0.6216,2.3316l-0.3729,1.3498l-1.3674,0.3682l-2.3619,0.7363l2.3619,0.6135l1.3674,0.3682l0.3729,1.3499l0.6216,2.3315l0.7458,-2.3315l0.3729,-1.3499l1.3674,-0.3682l2.3619,-0.6135z"/>
  <path id="svg_24" fill="#02E7D9" d="m34.6825,24.175l-4.3508,0l0,8.9582l-0.1243,0.1227c-2.6105,2.577 -5.9669,3.9269 -9.6962,3.9269c-3.6049,0 -6.9613,-1.3499 -9.4475,-3.8042l0,-9.3264l-4.35081,0l4.97241,-4.0496l0,-5.2767l4.2265,0l0,1.9634l4.7237,-3.8042l6.9614,5.6449l6.5884,5.3995l0.4972,0.2455z"/>
  <path id="svg_25" fill="white" d="m20.0138,25.0339l-2.6105,0l0,2.5771l2.6105,0l0,-2.5771z"/>
  <path id="svg_26" fill="white" d="m23.9914,25.0339l-2.6105,0l0,2.5771l2.6105,0l0,-2.5771z"/>
  <path id="svg_27" fill="white" d="m20.0138,28.8381l-2.6105,0l0,2.5771l2.6105,0l0,-2.5771z"/>
  <path id="svg_28" fill="white" d="m23.9914,28.8381l-2.6105,0l0,2.5771l2.6105,0l0,-2.5771z"/>
  <path id="svg_29" fill="url(#paint1_linear)" d="m25.6077,45.4047c-5.221,0 -10.1934,-1.9635 -13.9227,-5.6449c-0.2486,-0.2455 -0.3729,-0.3682 -0.6215,-0.6136c3.4806,2.6997 7.7072,4.1723 12.1823,4.1723c5.3453,0 10.1934,-2.0861 13.9227,-5.7676c0.7458,-0.7363 1.3674,-1.4726 1.9889,-2.3316c-0.9945,2.9452 -2.6105,5.5222 -4.5994,7.9765c-2.7349,1.4726 -5.8426,2.2089 -8.9503,2.2089z" clip-rule="evenodd" fill-rule="evenodd"/>
  <path id="svg_30" fill="white" d="m16.5381,18.2442l0,-3.5587l-0.4973,0l0,3.5587l0.4973,0z"/>
  <rect id="svg_32" height="36" width="135" y="6.5" x="89.5" stroke="#000" fill="#fff"/>
  <text transform="matrix(1.35927 0 0 1.13514 -35.5554 -0.337838)" stroke="#000" font-style="normal" font-weight="normal" xml:space="preserve" text-anchor="start" font-family="'Sacramento'" font-size="24" id="svg_34" y="29.5" x="99.5" stroke-width="0" fill="#5f00bf">Inventarios</text>
  <rect stroke="#000" id="svg_35" height="35" width="34" y="7.5" x="54.5" stroke-width="0" fill="#f8f7f9"/>
  <text font-style="normal" font-weight="normal" transform="matrix(0.903813 0 0 1 -3.84108 0)" stroke="#000" xml:space="preserve" text-anchor="start" font-family="'Tangerine'" font-size="24" id="svg_36" y="27.5" x="62.5" stroke-width="0" fill="#5f00bf">caew</text>
  <rect id="svg_37" height="40" width="172" y="4.5" x="54.5" stroke-width="0" stroke="#000" fill="#f6f2f9"/>
  <text transform="matrix(1 0 0 0.624869 0 1.00261)" stroke="#000" font-style="normal" font-weight="normal" xml:space="preserve" text-anchor="start" font-family="'Nunito Black'" font-size="24" id="svg_38" y="28.5" x="59.5" stroke-width="0" fill="#5f00bf">CAEW</text>
  <text transform="matrix(1.99746 0 0 1.33333 -76.0082 -7.5)" stroke="#000" xml:space="preserve" text-anchor="start" font-family="'Nunito Black'" font-size="9" id="svg_40" y="31.5" x="74.96639" stroke-width="0" fill="#5f00bf">e-INVENTARIOS</text>
 </g>
</svg>