<svg width="46.553699" height="47" xmlns="http://www.w3.org/2000/svg" xmlns:undefined="http://sodipodi.sourceforge.net/DTD/sodipodi-0.dtd" xmlns:undefined="http://www.inkscape.org/namespaces/inkscape" version="1.1" fill="none">
 <metadata id="metadata78">image/svg+xml</metadata>

 <g>
  <title>Layer 1</title>
  <path id="path28" fill="#02e7d9" d="m7.9558,14.7258l-1.98895,-0.6135l-1.11878,-0.2455l-0.37293,-1.1044l-0.49724,-1.9634l-0.49724,1.9634l-0.37293,1.1044l-1.11878,0.2455l-1.98895,0.6135l1.98895,0.4909l1.11878,0.3682l0.37293,1.1044l0.49724,1.9634l0.49724,-1.9634l0.37293,-1.1044l1.11878,-0.3682l1.98895,-0.4909z"/>
  <path id="path42" fill="#02e7d9" d="m6.33973,47c3.02078,0 5.46957,-2.4174 5.46957,-5.3995c0,-2.982 -2.44879,-5.3995 -5.46957,-5.3995c-3.02078,0 -5.46961,2.4175 -5.46961,5.3995c0,2.9821 2.44883,5.3995 5.46961,5.3995z"/>
  <path id="path44" stroke-miterlimit="10" stroke="#ffffff" d="m5.59376,45.282c-2.11326,-0.3682 -3.48067,-2.4543 -3.10774,-4.5405"/>
  <path stroke="null" id="svg_14" fill="#02E7D9" d="m7.9558,14.7258l-1.98895,-0.6135l-1.11878,-0.2455l-0.37293,-1.1044l-0.49724,-1.9634l-0.49724,1.9634l-0.37293,1.1044l-1.11878,0.2455l-1.98895,0.6135l1.98895,0.4909l1.11878,0.3682l0.37293,1.1044l0.49724,1.9634l0.49724,-1.9634l0.37293,-1.1044l1.11878,-0.3682l1.98895,-0.4909z"/>
  <path stroke="null" id="svg_15" fill="#02E7D9" d="m24.8617,1.96345l-0.9945,-0.24543l-0.6215,-0.12272l-0.1243,-0.61358l-0.2487,-0.98172l-0.2486,0.98172l-0.2486,0.61358l-0.4972,0.12272l-0.9945,0.24543l0.9945,0.24543l0.4972,0.12271l0.2486,0.61358l0.2486,0.98172l0.2487,-0.98172l0.1243,-0.61358l0.6215,-0.12271l0.9945,-0.24543z"/>
  <path transform="rotate(97.4128 25.4702 27.0662)" stroke="null" id="svg_16" fill="#6B2AEE" d="m4.91142,19.89106c-3.12492,7.12706 -1.43226,15.53925 4.94777,21.26416c8.59364,7.71117 22.65582,7.71117 31.24935,0c8.59354,-7.71117 8.59354,-20.3294 0,-28.04066c-6.24991,-5.84178 -15.62462,-7.36064 -23.56719,-4.55658c1.82284,-0.46734 3.77599,-0.81785 5.59883,-0.81785c4.94785,0 9.7654,1.63571 13.54139,5.02397c3.77588,3.3882 5.59883,7.71117 5.59883,12.15095c0,4.43979 -1.82295,8.76265 -5.59883,12.15095c-3.77599,3.3882 -8.59354,5.02399 -13.54139,5.02399c-4.94785,0 -9.7654,-1.63579 -13.54139,-5.02399c-3.64573,-3.27138 -5.4686,-7.71117 -5.4686,-12.15095c0,-1.63569 0.26041,-3.3883 0.78123,-5.02399z" clip-rule="evenodd" fill-rule="evenodd"/>
  <path transform="rotate(148.238 23.8678 23.6841)" stroke="null" id="svg_17" fill="#02E7D9" d="m7.45898,30.5561c2.61052,5.8904 8.70162,10.0627 15.66302,10.0627c9.4475,0 17.1547,-7.6084 17.1547,-16.9347c0,-9.3264 -7.7072,-16.93477 -17.1547,-16.93477c-6.9614,0 -13.0525,4.17237 -15.66302,10.18537c0.74586,-1.3499 1.61603,-2.4543 2.61052,-3.5587c2.7348,-2.6998 6.3398,-4.29508 10.442,-4.29508c4.1022,0 7.8315,1.59528 10.442,4.29508c2.7348,2.6997 4.3508,6.2584 4.3508,10.3081c0,4.0496 -1.616,7.731 -4.3508,10.308c-2.7348,2.6998 -6.3398,4.2951 -10.442,4.2951c-4.1022,0 -7.8315,-1.5953 -10.442,-4.2951c-0.99449,-0.9817 -1.86466,-2.2088 -2.61052,-3.436z" clip-rule="evenodd" fill-rule="evenodd"/>
  <path stroke="null" id="svg_18" fill="url(#paint0_linear)" d="m22.873,39.3916c3.3564,-0.4908 6.5884,-2.0861 9.0746,-4.4177c2.9835,-2.9452 4.7238,-6.9948 4.7238,-11.1671c0,-4.1723 -1.616,-8.222 -4.7238,-11.1671c-2.4862,-2.4543 -5.5939,-4.04963 -9.0746,-4.41778c0.1244,0 0.1244,0 0.2487,0c8.8259,0 15.9116,6.99478 15.9116,15.70758c0,4.1723 -1.6161,8.0992 -4.5995,11.0444c-2.9834,2.9452 -6.9613,4.5405 -11.1878,4.5405c-0.2486,-0.1228 -0.2486,-0.1228 -0.373,-0.1228z" clip-rule="evenodd" fill-rule="evenodd"/>
  <path stroke="null" id="svg_19" fill="#02E7D9" d="m42.1411,8.83551c1.991,0 3.605,-1.5933 3.605,-3.55875c0,-1.96544 -1.614,-3.55874 -3.605,-3.55874c-1.991,0 -3.605,1.5933 -3.605,3.55874c0,1.96545 1.614,3.55875 3.605,3.55875z"/>
  <path stroke="white" id="svg_20" stroke-miterlimit="10" stroke-width="0.7" d="m42.1406,2.69977c1.4917,0 2.6105,1.10444 2.6105,2.57702"/>
  <path transform="rotate(21.6574 6.33971 41.6005)" stroke="null" id="svg_21" fill="#02E7D9" d="m6.33973,47c3.02078,0 5.46957,-2.4174 5.46957,-5.3995c0,-2.982 -2.44879,-5.3995 -5.46957,-5.3995c-3.02078,0 -5.46961,2.4175 -5.46961,5.3995c0,2.9821 2.44883,5.3995 5.46961,5.3995z"/>
  <path stroke="white" id="svg_22" stroke-miterlimit="10" d="m5.59376,45.282c-2.11326,-0.3682 -3.48067,-2.4543 -3.10774,-4.5405"/>
  <path stroke="null" id="svg_23" fill="white" d="m41.022,36.2011l-2.3619,-0.7363l-1.3674,-0.3682l-0.3729,-1.3498l-0.7458,-2.3316l-0.6216,2.3316l-0.3729,1.3498l-1.3674,0.3682l-2.3619,0.7363l2.3619,0.6135l1.3674,0.3682l0.3729,1.3499l0.6216,2.3315l0.7458,-2.3315l0.3729,-1.3499l1.3674,-0.3682l2.3619,-0.6135z"/>
  <path stroke="null" id="svg_25" fill="white" d="m20.0138,25.0339l-2.6105,0l0,2.5771l2.6105,0l0,-2.5771z"/>
  <path stroke="null" id="svg_26" fill="white" d="m23.9914,25.0339l-2.6105,0l0,2.5771l2.6105,0l0,-2.5771z"/>
  <path stroke="null" id="svg_27" fill="white" d="m20.0138,28.8381l-2.6105,0l0,2.5771l2.6105,0l0,-2.5771z"/>
  <path stroke="null" id="svg_28" fill="white" d="m23.9914,28.8381l-2.6105,0l0,2.5771l2.6105,0l0,-2.5771z"/>
  <path stroke="null" id="svg_29" fill="url(#paint1_linear)" d="m25.6077,45.4047c-5.221,0 -10.1934,-1.9635 -13.9227,-5.6449c-0.2486,-0.2455 -0.3729,-0.3682 -0.6215,-0.6136c3.4806,2.6997 7.7072,4.1723 12.1823,4.1723c5.3453,0 10.1934,-2.0861 13.9227,-5.7676c0.7458,-0.7363 1.3674,-1.4726 1.9889,-2.3316c-0.9945,2.9452 -2.6105,5.5222 -4.5994,7.9765c-2.7349,1.4726 -5.8426,2.2089 -8.9503,2.2089z" clip-rule="evenodd" fill-rule="evenodd"/>
  <path stroke="null" id="svg_30" fill="white" d="m16.5381,18.2442l0,-3.5587l-0.4973,0l0,3.5587l0.4973,0z"/>
  <text transform="rotate(-25.2802 27.9218 16.8045) matrix(1.09248 0 0 1.18538 -7.77147 3.51526)" stroke="#000" xml:space="preserve" text-anchor="start" font-family="Noto Sans JP" font-size="25" id="svg_24" y="19.65197" x="17.836" stroke-dasharray="2,2" stroke-width="0" fill="#000000" font-weight="bold">ew</text>
 </g>
</svg>